<mxfile host="app.diagrams.net" modified="2023-09-19T01:57:30.790Z" agent="Mozilla/5.0 (Windows NT 10.0; Win64; x64) AppleWebKit/537.36 (KHTML, like Gecko) Chrome/116.0.0.0 Safari/537.36" etag="LU1TYMsJouQ8icGXo2Ky" version="21.7.5" type="github">
  <diagram name="第 1 页" id="qjLFY8YKJ_UjfEmVRw2Z">
    <mxGraphModel dx="2146" dy="857" grid="1" gridSize="10" guides="1" tooltips="1" connect="1" arrows="1" fold="1" page="1" pageScale="1" pageWidth="827" pageHeight="1169" background="#ffffff" math="0" shadow="0">
      <root>
        <mxCell id="0" />
        <mxCell id="1" parent="0" />
        <mxCell id="GWRNlbIoUN27S7BWqESk-4" value="" style="edgeStyle=orthogonalEdgeStyle;rounded=0;orthogonalLoop=1;jettySize=auto;html=1;labelBackgroundColor=none;fontColor=default;strokeColor=#788AA3;" edge="1" parent="1" source="GWRNlbIoUN27S7BWqESk-2" target="GWRNlbIoUN27S7BWqESk-3">
          <mxGeometry relative="1" as="geometry" />
        </mxCell>
        <mxCell id="GWRNlbIoUN27S7BWqESk-2" value="开始" style="strokeWidth=2;html=1;shape=mxgraph.flowchart.terminator;whiteSpace=wrap;labelBackgroundColor=none;fillColor=#B2C9AB;strokeColor=#788AA3;fontColor=#46495D;" vertex="1" parent="1">
          <mxGeometry x="330" y="300" width="80" height="30" as="geometry" />
        </mxCell>
        <mxCell id="GWRNlbIoUN27S7BWqESk-6" value="" style="edgeStyle=orthogonalEdgeStyle;rounded=0;orthogonalLoop=1;jettySize=auto;html=1;labelBackgroundColor=none;fontColor=default;strokeColor=#788AA3;" edge="1" parent="1" source="GWRNlbIoUN27S7BWqESk-3" target="GWRNlbIoUN27S7BWqESk-5">
          <mxGeometry relative="1" as="geometry" />
        </mxCell>
        <mxCell id="GWRNlbIoUN27S7BWqESk-3" value="输入数据n, m" style="whiteSpace=wrap;html=1;strokeWidth=2;labelBackgroundColor=none;fillColor=#B2C9AB;strokeColor=#788AA3;fontColor=#46495D;" vertex="1" parent="1">
          <mxGeometry x="330" y="370" width="80" height="30" as="geometry" />
        </mxCell>
        <mxCell id="GWRNlbIoUN27S7BWqESk-8" value="" style="edgeStyle=orthogonalEdgeStyle;rounded=0;orthogonalLoop=1;jettySize=auto;html=1;labelBackgroundColor=none;fontColor=default;strokeColor=#788AA3;" edge="1" parent="1" source="GWRNlbIoUN27S7BWqESk-5" target="GWRNlbIoUN27S7BWqESk-7">
          <mxGeometry relative="1" as="geometry" />
        </mxCell>
        <mxCell id="GWRNlbIoUN27S7BWqESk-10" value="否" style="edgeLabel;html=1;align=center;verticalAlign=middle;resizable=0;points=[];labelBackgroundColor=none;fontColor=#46495D;" vertex="1" connectable="0" parent="GWRNlbIoUN27S7BWqESk-8">
          <mxGeometry x="-0.1556" y="1" relative="1" as="geometry">
            <mxPoint as="offset" />
          </mxGeometry>
        </mxCell>
        <mxCell id="GWRNlbIoUN27S7BWqESk-12" value="" style="edgeStyle=orthogonalEdgeStyle;rounded=0;orthogonalLoop=1;jettySize=auto;html=1;labelBackgroundColor=none;fontColor=default;strokeColor=#788AA3;" edge="1" parent="1" source="GWRNlbIoUN27S7BWqESk-5" target="GWRNlbIoUN27S7BWqESk-11">
          <mxGeometry relative="1" as="geometry" />
        </mxCell>
        <mxCell id="GWRNlbIoUN27S7BWqESk-13" value="是" style="edgeLabel;html=1;align=center;verticalAlign=middle;resizable=0;points=[];labelBackgroundColor=none;fontColor=#46495D;" vertex="1" connectable="0" parent="GWRNlbIoUN27S7BWqESk-12">
          <mxGeometry x="-0.1944" y="-1" relative="1" as="geometry">
            <mxPoint as="offset" />
          </mxGeometry>
        </mxCell>
        <mxCell id="GWRNlbIoUN27S7BWqESk-5" value="n &amp;lt; m" style="rhombus;whiteSpace=wrap;html=1;strokeWidth=2;labelBackgroundColor=none;fillColor=#B2C9AB;strokeColor=#788AA3;fontColor=#46495D;" vertex="1" parent="1">
          <mxGeometry x="330" y="440" width="80" height="35" as="geometry" />
        </mxCell>
        <mxCell id="GWRNlbIoUN27S7BWqESk-24" style="edgeStyle=orthogonalEdgeStyle;rounded=0;orthogonalLoop=1;jettySize=auto;html=1;entryX=1;entryY=0.5;entryDx=0;entryDy=0;exitX=0.5;exitY=1;exitDx=0;exitDy=0;labelBackgroundColor=none;fontColor=default;strokeColor=#788AA3;" edge="1" parent="1" source="GWRNlbIoUN27S7BWqESk-7" target="GWRNlbIoUN27S7BWqESk-22">
          <mxGeometry relative="1" as="geometry">
            <mxPoint x="500" y="480" as="sourcePoint" />
            <Array as="points">
              <mxPoint x="500" y="474" />
              <mxPoint x="500" y="625" />
            </Array>
          </mxGeometry>
        </mxCell>
        <mxCell id="GWRNlbIoUN27S7BWqESk-7" value="ans = m - n" style="whiteSpace=wrap;html=1;strokeWidth=2;labelBackgroundColor=none;fillColor=#B2C9AB;strokeColor=#788AA3;fontColor=#46495D;" vertex="1" parent="1">
          <mxGeometry x="460" y="440" width="70" height="34.38" as="geometry" />
        </mxCell>
        <mxCell id="GWRNlbIoUN27S7BWqESk-23" value="" style="edgeStyle=orthogonalEdgeStyle;rounded=0;orthogonalLoop=1;jettySize=auto;html=1;labelBackgroundColor=none;fontColor=default;strokeColor=#788AA3;" edge="1" parent="1" source="GWRNlbIoUN27S7BWqESk-11" target="GWRNlbIoUN27S7BWqESk-22">
          <mxGeometry relative="1" as="geometry" />
        </mxCell>
        <mxCell id="GWRNlbIoUN27S7BWqESk-11" value="ans = n - m" style="whiteSpace=wrap;html=1;strokeWidth=2;labelBackgroundColor=none;fillColor=#B2C9AB;strokeColor=#788AA3;fontColor=#46495D;" vertex="1" parent="1">
          <mxGeometry x="330" y="530" width="80" height="30" as="geometry" />
        </mxCell>
        <mxCell id="GWRNlbIoUN27S7BWqESk-26" style="edgeStyle=orthogonalEdgeStyle;rounded=0;orthogonalLoop=1;jettySize=auto;html=1;exitX=0.5;exitY=1;exitDx=0;exitDy=0;labelBackgroundColor=none;fontColor=default;strokeColor=#788AA3;" edge="1" parent="1" source="GWRNlbIoUN27S7BWqESk-22" target="GWRNlbIoUN27S7BWqESk-25">
          <mxGeometry relative="1" as="geometry">
            <mxPoint x="369.71428571428567" y="650" as="targetPoint" />
          </mxGeometry>
        </mxCell>
        <mxCell id="GWRNlbIoUN27S7BWqESk-22" value="输出ans" style="whiteSpace=wrap;html=1;strokeWidth=2;labelBackgroundColor=none;fillColor=#B2C9AB;strokeColor=#788AA3;fontColor=#46495D;" vertex="1" parent="1">
          <mxGeometry x="328.31" y="610" width="83.38" height="30" as="geometry" />
        </mxCell>
        <mxCell id="GWRNlbIoUN27S7BWqESk-25" value="结束" style="strokeWidth=2;html=1;shape=mxgraph.flowchart.terminator;whiteSpace=wrap;labelBackgroundColor=none;fillColor=#B2C9AB;strokeColor=#788AA3;fontColor=#46495D;" vertex="1" parent="1">
          <mxGeometry x="335" y="680" width="70" height="30" as="geometry" />
        </mxCell>
        <mxCell id="GWRNlbIoUN27S7BWqESk-28" value="背景1号" parent="0" />
      </root>
    </mxGraphModel>
  </diagram>
</mxfile>
